<svg width="36" height="39" viewBox="0 0 36 39" fill="none" xmlns="http://www.w3.org/2000/svg">
<path d="M11.8902 19.0244C17.1362 19.0244 21.4024 14.7582 21.4024 9.51219C21.4024 4.26622 17.1362 0 11.8902 0C6.64427 0 2.37805 4.26622 2.37805 9.51219C2.37805 14.7582 6.64427 19.0244 11.8902 19.0244ZM7.18171 12.8748C7.55268 12.5038 8.15671 12.5038 8.52768 12.8748C8.78927 13.1363 9.07939 13.3599 9.37902 13.5501C10.9105 14.5013 12.87 14.5013 14.4015 13.5501C14.7011 13.3599 14.9912 13.1363 15.2528 12.8748C15.6238 12.5038 16.2278 12.5038 16.5988 12.8748C16.9698 13.2457 16.9698 13.8498 16.5988 14.2207C15.3004 15.5191 13.5929 16.166 11.8902 16.166C10.1876 16.166 8.48012 15.5191 7.18171 14.2207C6.81073 13.8498 6.81073 13.2457 7.18171 12.8748ZM18.0161 39H0V32.8171C0 26.2584 5.33159 20.9268 11.8902 20.9268C12.5894 20.9268 13.2743 20.9934 13.9449 21.1076C12.6022 23.178 11.8885 25.5933 11.8902 28.061C11.8902 32.6791 14.3444 36.7361 18.0161 39ZM24.7317 17.122C18.701 17.122 13.7927 22.0302 13.7927 28.061C13.7927 34.0917 18.701 39 24.7317 39C30.7624 39 35.6707 34.0917 35.6707 28.061C35.6707 22.0302 30.7624 17.122 24.7317 17.122ZM25.6829 33.7683V35.1951C25.6829 35.7183 25.2549 36.1463 24.7317 36.1463C24.2085 36.1463 23.7805 35.7183 23.7805 35.1951V33.7683H22.3537C21.8305 33.7683 21.4024 33.3402 21.4024 32.8171C21.4024 32.2939 21.8305 31.8659 22.3537 31.8659H25.6829C26.4677 31.8659 27.1098 31.2238 27.1098 30.439C27.1098 29.6543 26.4677 29.0122 25.6829 29.0122H23.7805C21.9446 29.0122 20.4512 27.5188 20.4512 25.6829C20.4512 23.8471 21.9446 22.3537 23.7805 22.3537V20.9268C23.7805 20.4037 24.2085 19.9756 24.7317 19.9756C25.2549 19.9756 25.6829 20.4037 25.6829 20.9268V22.3537H27.1098C27.6329 22.3537 28.061 22.7817 28.061 23.3049C28.061 23.828 27.6329 24.2561 27.1098 24.2561H23.7805C22.9957 24.2561 22.3537 24.8982 22.3537 25.6829C22.3537 26.4677 22.9957 27.1098 23.7805 27.1098H25.6829C27.5188 27.1098 29.0122 28.6032 29.0122 30.439C29.0122 32.2749 27.5188 33.7683 25.6829 33.7683Z" fill="#FFC436"/>
<path d="M7.18171 12.8748C7.55268 12.5038 8.15671 12.5038 8.52768 12.8748C8.78927 13.1363 9.07939 13.3599 9.37902 13.5501C10.9105 14.5013 12.87 14.5013 14.4015 13.5501C14.7011 13.3599 14.9912 13.1363 15.2528 12.8748C15.6238 12.5038 16.2278 12.5038 16.5988 12.8748C16.9698 13.2457 16.9698 13.8498 16.5988 14.2207C15.3004 15.5191 13.5929 16.166 11.8902 16.166C10.1876 16.166 8.48012 15.5191 7.18171 14.2207C6.81073 13.8498 6.81073 13.2457 7.18171 12.8748Z" fill="#FFC436"/>
</svg>
