<svg width="186" height="66" viewBox="0 0 186 66" fill="none" xmlns="http://www.w3.org/2000/svg">
<g opacity="0.4" filter="url(#filter0_b_66_2)">
<rect width="186" height="66" rx="33" transform="matrix(1 0 0 -1 0 66)" fill="url(#paint0_linear_66_2)"/>
<rect x="0.717357" y="-0.717357" width="184.565" height="64.5653" rx="32.2826" transform="matrix(1 0 0 -1 0 64.5653)" stroke="url(#paint1_linear_66_2)" stroke-width="1.43471"/>
</g>
<path d="M145.417 27.5625H126.458C126.072 27.5625 125.701 27.4089 125.427 27.1354C125.154 26.8619 125 26.4909 125 26.1042C125 25.7174 125.154 25.3465 125.427 25.073C125.701 24.7995 126.072 24.6458 126.458 24.6458H145.417C145.803 24.6458 146.174 24.7995 146.448 25.073C146.721 25.3465 146.875 25.7174 146.875 26.1042C146.875 26.4909 146.721 26.8619 146.448 27.1354C146.174 27.4089 145.803 27.5625 145.417 27.5625ZM158.542 27.5625H152.708C152.322 27.5625 151.951 27.4089 151.677 27.1354C151.404 26.8619 151.25 26.4909 151.25 26.1042C151.25 25.7174 151.404 25.3465 151.677 25.073C151.951 24.7995 152.322 24.6458 152.708 24.6458H158.542C158.928 24.6458 159.299 24.7995 159.573 25.073C159.846 25.3465 160 25.7174 160 26.1042C160 26.4909 159.846 26.8619 159.573 27.1354C159.299 27.4089 158.928 27.5625 158.542 27.5625Z" fill="white"/>
<path d="M149.062 31.2083C148.053 31.2083 147.066 30.909 146.227 30.3481C145.387 29.7873 144.733 28.9901 144.347 28.0574C143.961 27.1248 143.859 26.0985 144.056 25.1084C144.253 24.1183 144.739 23.2088 145.453 22.495C146.167 21.7811 147.077 21.295 148.067 21.0981C149.057 20.9011 150.083 21.0022 151.016 21.3885C151.948 21.7749 152.746 22.4291 153.306 23.2684C153.867 24.1078 154.167 25.0947 154.167 26.1042C154.167 27.4579 153.629 28.7561 152.672 29.7134C151.714 30.6706 150.416 31.2083 149.062 31.2083ZM149.062 23.9167C148.63 23.9167 148.207 24.045 147.847 24.2853C147.487 24.5257 147.207 24.8673 147.042 25.267C146.876 25.6668 146.833 26.1066 146.917 26.5309C147.001 26.9553 147.21 27.345 147.516 27.651C147.822 27.9569 148.211 28.1652 148.636 28.2496C149.06 28.334 149.5 28.2907 149.9 28.1252C150.299 27.9596 150.641 27.6792 150.881 27.3195C151.122 26.9597 151.25 26.5368 151.25 26.1042C151.25 25.524 151.02 24.9676 150.609 24.5574C150.199 24.1471 149.643 23.9167 149.062 23.9167ZM158.542 42.1458H139.583C139.197 42.1458 138.826 41.9922 138.552 41.7187C138.279 41.4452 138.125 41.0743 138.125 40.6875C138.125 40.3007 138.279 39.9298 138.552 39.6563C138.826 39.3828 139.197 39.2292 139.583 39.2292H158.542C158.928 39.2292 159.299 39.3828 159.573 39.6563C159.846 39.9298 160 40.3007 160 40.6875C160 41.0743 159.846 41.4452 159.573 41.7187C159.299 41.9922 158.928 42.1458 158.542 42.1458ZM132.292 42.1458H126.458C126.072 42.1458 125.701 41.9922 125.427 41.7187C125.154 41.4452 125 41.0743 125 40.6875C125 40.3007 125.154 39.9298 125.427 39.6563C125.701 39.3828 126.072 39.2292 126.458 39.2292H132.292C132.678 39.2292 133.049 39.3828 133.323 39.6563C133.596 39.9298 133.75 40.3007 133.75 40.6875C133.75 41.0743 133.596 41.4452 133.323 41.7187C133.049 41.9922 132.678 42.1458 132.292 42.1458Z" fill="white"/>
<path d="M135.937 45.7917C134.928 45.7917 133.941 45.4923 133.101 44.9315C132.262 44.3706 131.608 43.5734 131.222 42.6408C130.835 41.7081 130.734 40.6818 130.931 39.6917C131.128 38.7016 131.614 37.7921 132.328 37.0783C133.042 36.3645 133.951 35.8784 134.941 35.6814C135.932 35.4845 136.958 35.5855 137.89 35.9719C138.823 36.3582 139.62 37.0124 140.181 37.8518C140.742 38.6912 141.041 39.678 141.041 40.6875C141.041 42.0412 140.504 43.3395 139.546 44.2967C138.589 45.2539 137.291 45.7917 135.937 45.7917ZM135.937 38.5C135.505 38.5 135.082 38.6283 134.722 38.8687C134.362 39.109 134.082 39.4507 133.916 39.8504C133.751 40.2501 133.707 40.6899 133.792 41.1143C133.876 41.5386 134.084 41.9284 134.39 42.2343C134.696 42.5402 135.086 42.7486 135.51 42.833C135.935 42.9174 136.375 42.8741 136.774 42.7085C137.174 42.5429 137.516 42.2625 137.756 41.9028C137.996 41.5431 138.125 41.1202 138.125 40.6875C138.125 40.1073 137.894 39.5509 137.484 39.1407C137.074 38.7305 136.517 38.5 135.937 38.5Z" fill="white"/>
<line x1="93.5" y1="1" x2="93.5" y2="66" stroke="white" stroke-opacity="0.5"/>
<path d="M60.1675 37.6475C59.6734 37.156 59.2817 36.5714 59.015 35.9275C58.7484 35.2836 58.612 34.5932 58.6138 33.8963V29.5327C58.6138 26.1178 57.2572 22.8427 54.8425 20.428C52.4278 18.0133 49.1527 16.6567 45.7377 16.6567C42.3228 16.6567 39.0477 18.0133 36.633 20.428C34.2183 22.8427 32.8617 26.1178 32.8617 29.5327V33.8963C32.8635 34.5932 32.7271 35.2836 32.4604 35.9275C32.1938 36.5714 31.802 37.156 31.308 37.6475C30.6835 38.272 30.2581 39.0676 30.0858 39.9338C29.9135 40.8 30.0019 41.6978 30.3399 42.5138C30.6779 43.3297 31.2503 44.0271 31.9846 44.5177C32.719 45.0084 33.5823 45.2702 34.4655 45.2701H38.7274C39.0558 46.8872 39.9331 48.341 41.2107 49.3853C42.4883 50.4295 44.0877 51 45.7377 51C47.3878 51 48.9872 50.4295 50.2648 49.3853C51.5424 48.341 52.4197 46.8872 52.748 45.2701H57.0114C57.8946 45.2702 58.758 45.0084 59.4923 44.5177C60.2267 44.0271 60.799 43.3297 61.137 42.5138C61.475 41.6978 61.5634 40.8 61.3911 39.9338C61.2188 39.0676 60.792 38.272 60.1675 37.6475ZM45.7377 48.1315C44.8532 48.1278 43.9914 47.8509 43.2703 47.3388C42.5491 46.8266 42.0038 46.1041 41.709 45.2701H49.7665C49.4717 46.1041 48.9264 46.8266 48.2052 47.3388C47.4841 47.8509 46.6223 48.1278 45.7377 48.1315ZM57.01 42.4088H34.4655C34.1481 42.409 33.8379 42.315 33.574 42.1388C33.31 41.9626 33.1043 41.712 32.9829 41.4189C32.8614 41.1257 32.8296 40.8031 32.8916 40.4919C32.9536 40.1806 33.1065 39.8948 33.331 39.6705C34.0916 38.9139 34.6946 38.014 35.1052 37.0229C35.5158 36.0318 35.7258 34.9691 35.723 33.8963V29.5327C35.723 26.8767 36.7782 24.3294 38.6563 22.4513C40.5344 20.5731 43.0817 19.518 45.7377 19.518C48.3938 19.518 50.9411 20.5731 52.8192 22.4513C54.6973 24.3294 55.7525 26.8767 55.7525 29.5327V33.8963C55.7497 34.9691 55.9597 36.0318 56.3703 37.0229C56.7809 38.014 57.3839 38.9139 58.1445 39.6705C58.369 39.8948 58.5219 40.1806 58.5839 40.4919C58.6458 40.8031 58.6141 41.1257 58.4926 41.4189C58.3712 41.712 58.1654 41.9626 57.9015 42.1388C57.6376 42.315 57.3274 42.409 57.01 42.4088Z" fill="white"/>
<circle cx="54.8504" cy="21.6267" r="6.62672" fill="#FFC436"/>
<defs>
<filter id="filter0_b_66_2" x="-86.0828" y="-86.0828" width="358.166" height="238.166" filterUnits="userSpaceOnUse" color-interpolation-filters="sRGB">
<feFlood flood-opacity="0" result="BackgroundImageFix"/>
<feGaussianBlur in="BackgroundImageFix" stdDeviation="43.0414"/>
<feComposite in2="SourceAlpha" operator="in" result="effect1_backgroundBlur_66_2"/>
<feBlend mode="normal" in="SourceGraphic" in2="effect1_backgroundBlur_66_2" result="shape"/>
</filter>
<linearGradient id="paint0_linear_66_2" x1="2.2526" y1="1.71676" x2="126.667" y2="125.591" gradientUnits="userSpaceOnUse">
<stop stop-color="#C9C9C9" stop-opacity="0.8"/>
<stop offset="1" stop-color="#C4C4C4" stop-opacity="0.1"/>
</linearGradient>
<linearGradient id="paint1_linear_66_2" x1="1.39281e-06" y1="1.71676" x2="127.94" y2="124.945" gradientUnits="userSpaceOnUse">
<stop stop-color="white" stop-opacity="0.8"/>
<stop offset="1" stop-color="#D3D3D3" stop-opacity="0.1"/>
</linearGradient>
</defs>
</svg>
