<svg width="419" height="297" viewBox="0 0 419 297" fill="none" xmlns="http://www.w3.org/2000/svg">
<path d="M416.723 197.091L418.92 189.686H324.362C324.362 189.686 304.002 222.298 286.197 238.837C256.576 266.349 237.127 274.072 237.127 274.072C237.127 274.072 219.55 264.795 190.581 238.837C161.611 212.878 151.683 189.686 151.683 189.686H111.728V197.091H131.421C131.421 197.091 154.08 231.159 173.736 248.764C205.716 277.408 237.127 296.45 237.127 296.45C237.127 296.45 274.503 276.595 301.902 248.764C329.301 220.934 341.288 197.091 341.288 197.091H416.723Z" fill="#0C356A"/>
<path d="M350.625 56.6642L344.624 88.9432H362.934L369.997 59.2679C372.164 50.1627 366.952 40.925 358.038 38.072L246.164 2.26705C241.538 0.786409 236.585 0.655131 231.887 1.88861L121.016 30.9965C113.146 33.0626 107.66 40.1758 107.66 48.3123V73.3191H24.1685L16.6006 79.1782H124.341V58.7722C124.341 52.3896 128.659 46.8153 134.839 45.2199L231.408 20.2901C236.431 18.9935 241.71 19.0693 246.693 20.5096L346.032 49.2203C349.25 50.1504 351.237 53.3708 350.625 56.6642Z" fill="#FFC436"/>
<path d="M419 151.088V103.692H405.629V147.596H391.66V103.692H378.988V158.671C378.988 163.962 374.699 168.25 369.409 168.25H367.712V176.732H379.487C386.21 176.732 391.66 171.282 391.66 164.558V158.073H412.015C415.873 158.073 419 154.946 419 151.088Z" fill="#0C356A"/>
<circle cx="410.818" cy="172.741" r="5.58775" fill="#0C356A"/>
<circle cx="358.133" cy="172.741" r="5.58775" fill="#0C356A"/>
<circle cx="341.769" cy="172.741" r="5.58775" fill="#0C356A"/>
<circle cx="231.212" cy="172.741" r="5.58775" fill="#0C356A"/>
<circle cx="213.65" cy="172.741" r="5.58775" fill="#0C356A"/>
<path d="M356.936 103.792H344.663L343.565 148.494H329.496V116.963C329.496 109.689 323.599 103.792 316.325 103.792H275.814V114.368H308.742C312.489 114.368 315.527 117.406 315.527 121.154V148.494H271.024V158.771H349.153C353.452 158.771 356.936 155.287 356.936 150.988V103.792Z" fill="#0C356A"/>
<path d="M213.652 103.692H261.847V114.368H229.418C229.418 114.368 224.628 114.967 224.726 120.156C224.823 125.344 229.418 126.442 229.418 126.442H249.072C249.072 126.442 263.441 126.242 263.241 142.307C263.042 158.372 249.072 158.372 249.072 158.372H190.902C190.902 158.372 175.933 156.177 175.137 129.934C174.341 103.692 201.579 103.692 201.579 103.692V113.57C201.579 113.57 185.015 115.765 185.514 129.934C186.013 144.103 197.588 148.993 197.588 148.993H245.879C245.879 148.993 251.467 150.39 251.367 143.105C251.268 135.821 245.879 136.32 245.879 136.32H213.652V103.692Z" fill="#0C356A"/>
<path d="M26.6922 131.33V94.1717H32.193V131.33H26.6922ZM14.2312 95.2943V90.3548H44.6539V95.2943H14.2312ZM49.564 131.33V101.356H53.8299V113.705H53.6054C53.6054 109.327 54.5596 106.127 56.4681 104.107C58.4139 102.049 61.314 101.02 65.1683 101.02H66.1786V105.847H64.2702C61.2766 105.847 58.9752 106.651 57.3661 108.26C55.7571 109.832 54.9525 112.115 54.9525 115.108V131.33H49.564ZM82.9704 132.228C79.4154 132.228 76.6838 131.068 74.7753 128.748C72.8669 126.428 71.9127 123.079 71.9127 118.701V101.3H77.3012V119.767C77.3012 122.125 77.9373 123.977 79.2096 125.324C80.4819 126.634 82.2032 127.289 84.3736 127.289C86.6188 127.289 88.4524 126.578 89.8744 125.156C91.2964 123.696 92.0074 121.713 92.0074 119.206V101.3H97.3959V131.33H93.13V118.476H93.8035C93.8035 121.432 93.4106 123.94 92.6248 125.998C91.839 128.018 90.6602 129.571 89.0886 130.656C87.5543 131.704 85.5898 132.228 83.1949 132.228H82.9704ZM117.655 132.228C113.726 132.228 110.676 131.386 108.506 129.702C106.373 128.018 105.269 125.717 105.194 122.798H110.246C110.321 123.958 110.901 125.062 111.986 126.11C113.108 127.12 114.998 127.625 117.655 127.625C120.05 127.625 121.883 127.158 123.156 126.222C124.428 125.249 125.064 124.071 125.064 122.686C125.064 121.451 124.596 120.497 123.661 119.823C122.725 119.112 121.21 118.645 119.114 118.42L115.859 118.083C113.015 117.784 110.695 116.942 108.899 115.557C107.102 114.135 106.204 112.152 106.204 109.608C106.204 107.699 106.691 106.071 107.664 104.724C108.637 103.34 109.984 102.292 111.705 101.581C113.427 100.833 115.41 100.458 117.655 100.458C121.023 100.458 123.755 101.207 125.85 102.704C127.946 104.2 129.031 106.427 129.106 109.383H124.054C124.016 108.186 123.455 107.175 122.37 106.352C121.322 105.491 119.751 105.061 117.655 105.061C115.559 105.061 113.969 105.491 112.884 106.352C111.799 107.213 111.256 108.298 111.256 109.608C111.256 110.73 111.63 111.628 112.379 112.302C113.165 112.975 114.437 113.406 116.196 113.593L119.451 113.93C122.669 114.266 125.251 115.164 127.197 116.624C129.143 118.046 130.116 120.067 130.116 122.686C130.116 124.557 129.573 126.222 128.488 127.682C127.44 129.104 125.981 130.226 124.11 131.049C122.239 131.835 120.087 132.228 117.655 132.228ZM149.601 131.667C147.355 131.667 145.41 131.349 143.763 130.713C142.154 130.076 140.9 128.991 140.002 127.457C139.142 125.885 138.711 123.771 138.711 121.114V92.2633H143.875V121.788C143.875 123.397 144.306 124.651 145.166 125.549C146.064 126.409 147.318 126.84 148.927 126.84H154.203V131.667H149.601ZM133.547 105.398V101.356H154.203V105.398H133.547Z" fill="#FFC436"/>
<path d="M43.772 172.471L44.9975 168.605C46.9144 168.605 48.9412 168.495 51.078 168.275C53.2148 168.024 55.3359 167.6 57.4413 167.003C59.5781 166.374 61.6049 165.526 63.5218 164.458C65.4386 163.389 67.1198 162.038 68.5653 160.404L71.5348 162.148C71.252 162.871 71.0635 163.452 70.9692 163.892C70.8749 164.3 70.8278 164.677 70.8278 165.023C70.8278 165.495 71.0006 165.95 71.3463 166.39C71.6919 166.799 72.3361 167.144 73.2788 167.427C74.253 167.71 75.6199 167.851 77.3796 167.851C78.0395 167.851 78.5109 168.04 78.7937 168.417C79.1079 168.763 79.2651 169.187 79.2651 169.69C79.2651 170.192 79.0451 170.664 78.6052 171.104C78.1652 171.512 77.5996 171.716 76.9083 171.716C74.8972 171.716 73.1217 171.512 71.582 171.104C70.0736 170.664 68.9424 169.988 68.1882 169.077C67.4655 168.134 67.2298 166.924 67.4812 165.447L68.3296 165.73C67.0727 166.861 65.5643 167.851 63.8046 168.7C62.0763 169.517 60.1437 170.208 58.0069 170.774C55.9015 171.339 53.639 171.764 51.2194 172.046C48.8312 172.329 46.3488 172.471 43.772 172.471ZM43.772 172.471C40.9753 172.471 38.5085 172.282 36.3717 171.905C34.2663 171.559 32.5066 171.009 31.0926 170.255C29.6785 169.501 28.6101 168.527 27.8873 167.333C27.1646 166.107 26.8032 164.63 26.8032 162.902C26.8032 162.116 26.8661 161.315 26.9918 160.498C27.1175 159.65 27.2746 158.801 27.4631 157.953C27.6831 157.104 27.9031 156.287 28.123 155.502L31.6582 156.397C31.5325 156.869 31.3911 157.434 31.234 158.094C31.0768 158.723 30.9354 159.367 30.8097 160.027C30.7155 160.687 30.6683 161.284 30.6683 161.818C30.6683 163.452 31.0768 164.772 31.8939 165.777C32.7423 166.751 34.2035 167.474 36.2775 167.946C38.3514 168.385 41.2581 168.605 44.9975 168.605L45.9402 170.962L43.772 172.471ZM51.6908 152.579C51.0309 152.579 50.4653 152.359 49.9939 151.919C49.554 151.448 49.334 150.898 49.334 150.27C49.334 149.641 49.554 149.091 49.9939 148.62C50.4653 148.149 51.0309 147.913 51.6908 147.913C52.3193 147.913 52.8535 148.149 53.2934 148.62C53.7647 149.091 54.0004 149.641 54.0004 150.27C54.0004 150.898 53.7647 151.448 53.2934 151.919C52.8535 152.359 52.3193 152.579 51.6908 152.579ZM45.2332 152.579C44.5733 152.579 44.0077 152.359 43.5363 151.919C43.0964 151.448 42.8764 150.898 42.8764 150.27C42.8764 149.641 43.0964 149.091 43.5363 148.62C44.0077 148.149 44.5733 147.913 45.2332 147.913C45.8617 147.913 46.3959 148.149 46.8358 148.62C47.3072 149.091 47.5429 149.641 47.5429 150.27C47.5429 150.898 47.3072 151.448 46.8358 151.919C46.3959 152.359 45.8617 152.579 45.2332 152.579ZM76.8976 171.716L77.369 167.851C78.3745 167.851 79.1915 167.788 79.82 167.663C80.4485 167.506 80.967 167.144 81.3755 166.579C81.8154 165.982 82.2239 165.055 82.601 163.798C82.9781 162.541 83.418 160.781 83.9208 158.518L87.456 159.508C87.3303 160.042 87.1889 160.655 87.0317 161.347C86.8746 162.006 86.7332 162.698 86.6075 163.421C86.4818 164.112 86.419 164.756 86.419 165.353C86.419 166.139 86.7175 166.751 87.3145 167.191C87.9116 167.631 88.9957 167.851 90.5669 167.851C91.5096 167.851 92.2795 167.773 92.8765 167.616C93.4736 167.458 93.9607 167.081 94.3377 166.484C94.7462 165.887 95.1076 164.929 95.4219 163.609C95.7361 162.289 96.066 160.482 96.4117 158.188L99.994 158.848C99.8997 159.414 99.7897 160.105 99.6641 160.922C99.5384 161.739 99.4127 162.556 99.287 163.373C99.1927 164.159 99.1456 164.819 99.1456 165.353C99.1456 165.793 99.2398 166.217 99.4284 166.626C99.6483 167.003 100.057 167.301 100.654 167.521C101.282 167.741 102.209 167.851 103.435 167.851C104.346 167.851 105.132 167.741 105.792 167.521C106.483 167.301 107.001 166.893 107.347 166.296C107.724 165.699 107.913 164.866 107.913 163.798C107.913 162.604 107.63 161.111 107.064 159.32C106.53 157.497 105.917 155.69 105.226 153.899L109.044 152.485C109.453 153.491 109.83 154.638 110.175 155.926C110.552 157.214 110.867 158.487 111.118 159.744C111.369 161.001 111.495 162.101 111.495 163.043C111.495 164.489 111.307 165.762 110.929 166.861C110.552 167.961 110.018 168.873 109.327 169.595C108.636 170.287 107.787 170.821 106.782 171.198C105.776 171.544 104.645 171.716 103.388 171.716C101.911 171.716 100.701 171.544 99.7583 171.198C98.8156 170.852 98.0929 170.334 97.5901 169.642C97.0873 168.92 96.7574 168.008 96.6002 166.909H98.2029C97.6058 168.26 96.9773 169.281 96.3174 169.972C95.6575 170.664 94.8405 171.135 93.8664 171.386C92.8923 171.606 91.6039 171.716 90.0013 171.716C89.2157 171.716 88.3672 171.591 87.456 171.339C86.5761 171.088 85.8062 170.601 85.1463 169.878C84.4864 169.124 84.0936 168.008 83.9679 166.531L85.382 166.249C84.8478 167.851 84.1879 169.045 83.4023 169.831C82.6481 170.585 81.7368 171.088 80.6684 171.339C79.6 171.591 78.3431 171.716 76.8976 171.716ZM118.197 171.481L117.254 137.826H121.072L122.015 171.481H118.197ZM124.084 182.416L122.717 178.834C125.011 178.08 126.912 177.216 128.42 176.241C129.96 175.267 131.17 174.23 132.049 173.13C132.961 172.031 133.605 170.915 133.982 169.784C134.359 168.621 134.548 167.506 134.548 166.437C134.548 164.897 134.202 163.342 133.511 161.771C132.851 160.168 132.112 158.66 131.295 157.246L134.736 155.502C135.333 156.602 135.852 157.686 136.292 158.754C136.763 159.823 137.172 160.828 137.517 161.771C137.894 162.714 138.193 163.578 138.413 164.363C138.853 165.714 139.418 166.641 140.11 167.144C140.832 167.616 141.807 167.851 143.032 167.851C143.692 167.851 144.163 168.04 144.446 168.417C144.76 168.763 144.917 169.187 144.917 169.69C144.917 170.192 144.697 170.664 144.258 171.104C143.818 171.512 143.252 171.716 142.561 171.716C141.178 171.716 140.047 171.481 139.167 171.009C138.318 170.507 137.674 169.862 137.234 169.077C136.794 168.26 136.496 167.411 136.339 166.531L137.847 167.38C137.847 169.454 137.376 171.339 136.433 173.036C135.522 174.764 134.343 176.257 132.898 177.514C131.452 178.802 129.944 179.855 128.373 180.672C126.802 181.489 125.372 182.07 124.084 182.416ZM142.584 171.716L143.055 167.851C144.909 167.851 146.354 167.788 147.391 167.663C148.428 167.506 149.167 167.144 149.607 166.579C150.047 165.982 150.267 165.055 150.267 163.798C150.267 163.012 150.141 162.085 149.89 161.017C149.638 159.917 149.308 158.754 148.9 157.529C148.491 156.303 148.051 155.093 147.58 153.899L151.398 152.485C151.806 153.491 152.183 154.638 152.529 155.926C152.906 157.214 153.22 158.487 153.472 159.744C153.723 161.001 153.849 162.101 153.849 163.043C153.849 164.615 153.629 165.95 153.189 167.05C152.78 168.15 152.121 169.045 151.209 169.737C150.298 170.428 149.12 170.931 147.674 171.245C146.26 171.559 144.563 171.716 142.584 171.716ZM152.859 147.583C152.199 147.583 151.634 147.363 151.162 146.923C150.722 146.452 150.502 145.902 150.502 145.273C150.502 144.645 150.722 144.095 151.162 143.624C151.634 143.152 152.199 142.917 152.859 142.917C153.488 142.917 154.022 143.152 154.462 143.624C154.933 144.095 155.169 144.645 155.169 145.273C155.169 145.902 154.933 146.452 154.462 146.923C154.022 147.363 153.488 147.583 152.859 147.583ZM146.401 147.583C145.742 147.583 145.176 147.363 144.705 146.923C144.265 146.452 144.045 145.902 144.045 145.273C144.045 144.645 144.265 144.095 144.705 143.624C145.176 143.152 145.742 142.917 146.401 142.917C147.03 142.917 147.564 143.152 148.004 143.624C148.475 144.095 148.711 144.645 148.711 145.273C148.711 145.902 148.475 146.452 148.004 146.923C147.564 147.363 147.03 147.583 146.401 147.583Z" fill="#FFC436"/>
</svg>
