<svg width="1440" height="926" viewBox="0 0 1440 926" fill="none" xmlns="http://www.w3.org/2000/svg">
<g clip-path="url(#clip0_3_5)">
<rect width="1440" height="926" fill="url(#paint0_linear_3_5)"/>
<circle opacity="0.2" cx="1357.84" cy="65.0844" r="203.012" stroke="white" stroke-width="1.43471"/>
<circle opacity="0.2" cx="761.72" cy="936.673" r="149.21" stroke="white" stroke-width="1.43471"/>
<circle opacity="0.2" cx="425.278" cy="12" r="87.5175" fill="white"/>
<path opacity="0.2" d="M108.077 26.699C112.76 59.7608 95.151 92.9035 62.6491 119.762C30.1581 146.612 -17.1267 167.094 -71.5077 174.797C-125.889 182.499 -177.002 175.955 -215.671 159.184C-254.354 142.408 -280.474 115.459 -285.157 82.3977C-289.84 49.3359 -272.231 16.1932 -239.729 -10.6657C-207.238 -37.5156 -159.953 -57.9972 -105.572 -65.6999C-51.1913 -73.4026 -0.0785078 -66.8582 38.5911 -50.0877C77.2735 -33.3116 103.394 -6.36281 108.077 26.699Z" stroke="white" stroke-width="1.43471"/>
</g>
<rect x="0.5" y="0.5" width="1439" height="925" stroke="black"/>
<defs>
<linearGradient id="paint0_linear_3_5" x1="0" y1="0" x2="1440" y2="926" gradientUnits="userSpaceOnUse">
<stop stop-color="#0C356A"/>
<stop offset="1" stop-color="#1868D0"/>
</linearGradient>
<clipPath id="clip0_3_5">
<rect width="1440" height="926" fill="white"/>
</clipPath>
</defs>
</svg>
