<svg width="42" height="39" viewBox="0 0 42 39" fill="none" xmlns="http://www.w3.org/2000/svg">
<path d="M38.6286 26.2122V13.0233C39.4626 12.5418 40.1561 11.8504 40.6402 11.0179C41.1242 10.1853 41.3819 9.24058 41.3878 8.27755C41.3859 7.96636 41.279 7.66493 41.0842 7.4222L36.8075 2.06939C36.2909 1.42409 35.6358 0.903105 34.8908 0.544924C34.1458 0.186743 33.3298 0.000516576 32.5032 0H8.88457C8.05793 0.000516576 7.24196 0.186743 6.49694 0.544924C5.75193 0.903105 5.0969 1.42409 4.58025 2.06939L0.30351 7.4222C0.108766 7.66493 0.00180506 7.96636 0 8.27755C0.00581288 9.24058 0.263551 10.1853 0.747599 11.0179C1.23165 11.8504 1.92515 12.5418 2.75918 13.0233V31.7306C2.75918 32.0965 2.90453 32.4474 3.16326 32.7061C3.42198 32.9649 3.77288 33.1102 4.13878 33.1102H27.7298C27.9534 34.2045 28.4393 35.2281 29.1459 36.0931C29.8524 36.9581 30.7585 37.6386 31.7861 38.0761C32.8137 38.5136 33.9322 38.695 35.0455 38.6048C36.1587 38.5145 37.2334 38.1553 38.1771 37.558C39.1209 36.9607 39.9055 36.1432 40.4635 35.1757C41.0215 34.2081 41.3362 33.1196 41.3806 32.0036C41.425 30.8876 41.1978 29.7775 40.7184 28.7687C40.239 27.7599 39.5219 26.8826 38.6286 26.2122ZM5.51837 13.7959C6.92869 13.7979 8.28624 13.2598 9.31224 12.2922C10.3371 13.2624 11.6948 13.8032 13.1061 13.8032C14.5174 13.8032 15.8751 13.2624 16.9 12.2922C17.9249 13.2624 19.2826 13.8032 20.6939 13.8032C22.1052 13.8032 23.4629 13.2624 24.4878 12.2922C25.5126 13.2624 26.8703 13.8032 28.2816 13.8032C29.693 13.8032 31.0506 13.2624 32.0755 12.2922C33.1015 13.2598 34.4591 13.7979 35.8694 13.7959V24.9706C34.9816 24.7893 34.0669 24.7846 33.1773 24.9568C32.2877 25.1291 31.4408 25.4749 30.685 25.9746C29.9291 26.4742 29.2791 27.1179 28.772 27.8688C28.2649 28.6197 27.9108 29.4632 27.7298 30.351H5.51837V13.7959ZM34.4898 35.8694C33.6712 35.8694 32.871 35.6267 32.1904 35.1719C31.5098 34.7171 30.9793 34.0707 30.6661 33.3145C30.3528 32.5582 30.2708 31.726 30.4305 30.9232C30.5902 30.1203 30.9844 29.3829 31.5632 28.8041C32.1421 28.2252 32.8795 27.8311 33.6824 27.6714C34.4852 27.5117 35.3174 27.5936 36.0736 27.9069C36.8299 28.2201 37.4763 28.7506 37.9311 29.4312C38.3858 30.1119 38.6286 30.912 38.6286 31.7306C38.6286 32.8283 38.1925 33.881 37.4164 34.6572C36.6402 35.4333 35.5875 35.8694 34.4898 35.8694Z" fill="#FFC436"/>
</svg>
